<svg width="154" height="27" viewBox="0 0 154 27" fill="none" xmlns="http://www.w3.org/2000/svg">
<path d="M5.02043 25.692L4.36645 25.7232L3.83704 25.692V25.5363H3.65019V25.3806H3.46334V25.1938H3.27648V25.0069H3.08963V24.6955H2.90278V23.6678H2.71593V21.4567H2.49794V20.5848H2.34223V16.8166H2.15538V16.692L2.12424 16.2561V15.9446H1.96853V12.8927H1.78167V12.7682L1.75053 11.8962V11.1799L1.59482 11.1488V8.59515H1.40797V7.94118L1.22112 7.91003V7.25605L1.03427 7.22491L1.00313 6.53979H0.816277V6.38408H0.629426V5.88581H0.442575V5.20069H0.286865V5.01384H0.442575V4.48443H0.629426V4.17301L0.816277 4.14187V3.79931H1.00313V3.6436H1.22112V3.30104L1.43911 3.26989V3.11419H1.62597V2.95848H1.90624L1.99967 2.92733V2.77163H2.15538V2.61592H2.93392V2.77163H4.08617V2.61592H4.45988L4.49102 2.42906H5.26956V2.27335H5.70555L6.01697 2.24221V2.11765L6.63981 2.0865L6.60866 2.05536L6.63981 1.96194V1.9308H7.16922V2.11765L7.38721 2.0865V1.96194L7.51178 1.9308H8.97545L9.10001 1.96194V2.0865H9.50486V2.24221L9.84742 2.27335H10.2834V2.42906H10.9685L11.2177 2.46021V2.52249L11.2799 2.61592H11.4357V2.77163L11.6225 2.80277V3.11419H12.1831V3.26989H12.3699V3.45675H12.619V3.6436H12.7748V3.79931L13.1796 3.83045V4.14187H13.3664V4.29758H13.5222V4.48443H13.7402V4.67128H13.8959V4.9827L14.145 5.01384V5.20069H14.5187V5.3564H14.7056V5.51211H14.8924V5.85467L15.0793 5.88581V6.01038L15.2972 6.04152V6.38408H15.453V6.53979H15.8578V6.91349H16.0447V7.00692L16.0758 7.25605L16.1069 7.41176H16.2315V8.28374H16.4495V8.59515H16.6363L16.6675 8.68858V8.93772H16.7921L16.8232 9.06228V11.1799H17.01V11.6782H17.1658V14.0761H17.01V15.4464H16.8232V15.9446H16.6675V16.0692L16.6363 16.3183V16.474H16.4495V17.1592H16.2315V17.8443H15.8889L15.8578 18.1868H15.6709V18.872H15.4841L15.453 19.2145H15.2972V19.7128L15.0793 19.7439V19.8685H14.8924V20.0554H14.7056V20.2422H14.5498V20.4291L14.5187 20.5848H14.1139V20.7405H13.9581L13.8959 20.8962L13.7402 20.9273V21.083H13.5222V21.4256H13.3976L13.3664 21.519V21.6125H13.1796V21.7682H12.9616V21.9239L12.7436 21.955V22.2976H12.4011L12.3699 22.4533H12.2142L12.1831 22.5467V22.6401H12.0273V22.7958H11.7782V22.9516L11.4045 22.9827V23.1384H11.1865V23.481H11.062L11.0308 23.5744V23.6678H10.844V23.8235H10.6571V23.9792L10.408 24.0104V24.1661H10.0343V24.3529H9.84742V24.5087L9.47372 24.5398V24.6955H9.28686V24.8512H8.91316V25.0069H8.72631L8.69517 25.1315V25.1938H8.32147V25.3806H6.60866V25.5363H6.04811L5.39413 25.5675H5.17614V25.692H5.02043ZM7.94777 21.083V21.2699H8.44603V21.083H8.66403V20.9273L9.00659 20.8962L8.97545 20.8651V20.7716L9.1623 20.7405V20.5848H9.31801V20.2422H9.50486V20.0554H9.84742V19.8997L10.0343 19.8685V19.7439L10.19 19.7128V19.5571H10.3768V19.2145H10.5014L10.5948 19.1211V19.0277H10.7505L10.7194 18.9654L10.7505 18.872H11.0931V18.7163L11.2799 18.6851V18.1868H11.4357V18H11.8094V17.346H11.9962V16.8166H12.1519V16.5986L12.1831 16.2561L12.2142 16.1315H12.3388V15.9446H12.4945V15.3529L12.5256 14.6678V14.6055H12.7125V14.2007L12.7436 14.0761H12.8682L12.9305 13.9516V12.7059H13.0862V11.8651H12.9305V10.4948L12.7125 10.4637V9.9654H12.5256L12.4945 9.87197V9.80969H12.3388V9.31142H12.1831V9.12457L11.9962 9.09342V8.78201H11.8094V8.59515H11.6225V8.43945H11.4357V8.28374H11.2799V8.09689H11.062V7.94118L10.9374 7.91003L10.8751 7.75432V7.56747H10.7505V7.41176L10.5325 7.38062V7.25605L10.19 7.22491L10.1588 7.13149V7.0692H10.0031V6.72664H9.81628V6.53979H9.66057V6.38408H9.28686V6.22837H9.10001V6.04152H8.9443V5.88581L8.1969 5.85467V5.69896H7.29379V5.85467L6.76437 5.88581V6.04152H6.42181V6.22837H6.23496V6.35294L5.83012 6.38408V6.53979H5.48756V6.91349H5.33185V7.56747H5.48756V8.09689H5.33185V8.25259L5.48756 8.28374V10.1522H5.67441V10.2768L5.70555 10.526V10.6505H5.86126V11.3356L5.92354 12.0208H6.07925V15.9446H6.2661V17.8443H6.45295V18.6851L6.63981 18.7163V19.2145H6.73323L6.82666 19.2457V19.5571H7.01351V19.7128L7.04465 19.8685L7.20036 19.8997V20.5848H7.38721V20.8962L7.72977 20.9273V21.083H7.94777Z" fill="#9E9893"/>
<path d="M29.6152 25.4118H28.8678V25.2249H27.9024V25.0381H27.5287V24.8512H27.1239V24.6644L26.9993 24.6332H26.3765V24.4464H26.0027V24.1661L25.9716 24.0727H25.8159V23.8858H25.629L25.5979 23.699H25.2553L25.2242 23.5121H25.0685L25.0373 23.4187V23.2941H24.8505V23.1384L24.4768 23.1073V22.9204H24.2899V22.5779L24.1031 22.5467V22.3599H23.7294V22.2664L23.6983 22.173H23.3245V21.9862H23.1377V21.5813H22.9508V21.4256H22.764V21.2076H22.5771V20.8339H22.2034V20.6471H21.9854V20.2734H21.7986V19.8997H21.6117V19.7128H21.456V19.526H21.2692L21.238 19.4325V19.308H21.0512V19.1522L20.8643 19.1211V18.7474H20.6775V18.5606H20.3038V18H20.1169V17.6263L19.8989 17.5952V17.2526H19.7121V16.8789H19.5252V16.474H19.3384V15.6955H19.1515V10.9619H19.3384V10.7751H19.5252V9.80969H19.7121V9.06228H19.8989V8.71972L19.9301 8.25259V8.12803L20.1169 8.09689V7.72318H20.3038V7.53633H20.4906V6.41522H20.6775V6.22837H20.8643V5.63668H21.0512V5.26297H21.238L21.2692 4.88927L21.6117 4.85813V4.70242H21.7986L21.8297 4.609V4.51557L21.9854 4.48443L22.0166 4.32872L22.2034 4.29758V4.11073H22.3903V3.95502L22.5771 3.92387V3.76817H22.764V3.17647H22.9508V2.80277H23.1377V2.42906H23.3245L23.3557 2.21107V2.02422H23.5425V1.83737H23.9162V1.65052H24.1031V1.46367L24.4768 1.49481H24.8505V1.65052H25.0373V1.83737H25.2242V2.02422H25.4111V2.21107L25.7848 2.24221L25.8159 2.33564V2.42906H27.5287V2.58478H27.6533L28.4007 2.61592H29.0547V2.80277H29.6152V2.98962H30.1758V3.14533L30.7363 3.17647V3.36332H31.3591L31.5149 3.39446V3.55017L31.8886 3.58131V3.73702L32.0754 3.76817V3.92387L32.2623 3.95502V4.11073H32.636V4.48443H32.8228L32.854 4.70242V4.88927H33.0097V4.9827L33.0408 5.07612H33.1965L33.2277 5.20069V5.63668H33.3834L33.4145 5.79239V6.22837H33.6014V6.41522H33.7882V6.60207H33.9751V6.94464L34.1619 6.97578V7.16263H34.3488V7.53633H34.5356V7.72318L34.7225 7.75432V8.22145L34.7536 8.68858H34.9093L34.9405 10.1834L35.0962 10.2145L35.1273 10.7751H35.283L35.3142 11.1488V11.5225L35.4699 11.5536V11.6782L35.501 11.9585V12.083L35.6879 12.1142V12.6747H35.8436L35.8747 12.8304V13.827H36.0616V14.4187L36.0304 14.5744H35.8747V16.8477L35.6879 16.8789V17.6574L35.6567 17.782H35.5944L35.501 17.8131V18.5606L35.4699 19.308L35.3142 19.3391V19.4637L35.283 19.7439V19.8997H35.0962V20.6471H34.9405V20.8339H34.7536L34.7225 21.2076H34.5668L34.5356 21.3322L34.5668 21.519V21.5813H34.3488V21.9862H34.1619V22.3599H33.9751V22.5467H33.7882V22.7336H33.6014V23.1073L33.0408 23.1384L33.0097 23.2941L32.854 23.3253L32.8228 23.4187V23.5121H32.636V23.699H32.4491V23.8858H32.2623V24.0727H32.0754V24.2595H31.7017V24.4464H31.328V24.6332H30.9232V24.8512H30.7363V25.0381H30.1758V25.1938L29.6152 25.2249V25.4118ZM28.8678 20.6471V20.8339H29.9889V20.6471H30.3626V20.3045L30.7363 20.2422V20.1799L30.7675 20.0865H31.1412V19.8997H31.328V19.7128H31.7017V19.3391L31.8574 19.308L31.8886 19.2457V19.1522H31.982L32.0754 19.1211V18.5606H32.2623L32.2934 17.8131L32.4491 17.782V17.5952H32.636V15.3218H32.4491V14.0138H32.2623V12.301L32.0754 12.2699V11.3045L32.0443 11.1488H31.9197L31.8886 10.9931V9.99654H31.7017V9.43598H31.5149V9.34256L31.4837 9.24913H31.328V8.68858H31.1412V8.50173H30.9543L30.9232 8.09689H30.7363V7.91003H30.5495V7.72318H30.1758V7.56747L29.8021 7.53633L29.7709 7.34948H29.4284V7.25605L29.3972 7.16263H29.2415L29.2104 7.0692V6.97578L28.8678 6.94464V6.78893H28.463V6.97578H26.5633L26.5322 7.16263H26.1896V7.31834L25.8159 7.34948V7.4429L25.7848 7.53633L25.629 7.56747L25.5979 7.62976V7.72318H25.0373V7.91003H24.6636V8.09689H24.5079L24.4457 8.47059H24.2899V8.87543H24.1031V9.24913H23.9162V9.99654H23.7294V10.1211L23.6983 10.308V10.3702H23.5425V10.5571L23.5114 10.7751H23.3245V11.5536H23.1377V12.4567L22.9508 12.4879V13.0484H23.1377V13.9827L23.3245 14.0138V14.5433L23.4491 14.5744H23.5425V15.3218H23.7294V15.5086H23.9162V15.9135H24.1031V16.474H24.2899V16.8477L24.4768 16.8789V17.0657H24.6636V17.4083L24.8505 17.4394V17.5952H25.0373V17.782H25.4111V18L25.4422 18.1868H25.5979L25.629 18.5606H26.0027V18.7474H26.3765V18.9343H26.7502V19.0588L26.7813 19.1522H26.937V19.3391H27.1239V19.7128H27.5287V19.8997H27.9024V20.0865H28.2761V20.2734H28.463V20.6471H28.8678Z" fill="#9E9893"/>
<path d="M46.7636 27H45.6425V26.8131H44.9885V26.6886H44.8328V26.5017H44.6771V26.4394L44.6459 26.346H44.3345V26.2215H44.0542V25.91H43.8674V25.7232H43.4002V25.5675H43.2445L43.2134 25.474V25.4118L43.0577 25.3806L43.0888 25.2561V25.0692H42.902V24.9446L42.7774 24.9135L42.7463 24.4152H42.5906V24.2595H42.4348V24.1038H42.2791L42.248 23.7924L42.1234 23.7612V23.4498H41.9366V22.4844H41.7809V22.3287H41.6252V21.7059L41.4694 21.6747V21.0519H41.2826V20.8962H41.4694V20.2734L41.6252 20.2422V19.7439H41.7809V19.308L41.9366 19.2768V19.1211H42.1234V18.9654H42.2791V18.7785H42.7463V18.9654H43.0577L43.0888 19.0277V19.09L43.4002 19.1211L43.4314 19.2768H43.5248L43.556 19.3702V19.4325H43.7428V19.7439H44.0542V20.0865H44.1788L44.2099 20.5848H44.3345V21.083L44.3968 21.2076H44.5214V21.6747L44.6771 21.7059V22.1419H44.8328V22.3287H44.9885V22.4844H45.2999V22.8581H45.4868V22.9827H45.6425V23.1384H46.1407V23.2941H46.9193V23.1384H47.2618V22.9827H47.4175V22.8581L47.5733 22.7958V22.4844H47.6978L47.7601 22.3287V21.5502H47.5733V21.2076H47.6978L47.7601 20.8962H47.9158V18.6228H47.7601V17.2837L47.6978 17.1903H47.5733V15.9135L47.4487 15.8824L47.4175 15.3218V14.7612H47.2618V13.9827L47.1061 13.9516V13.3287H46.9504V12.5813L46.9193 11.6782V11.5536H46.7947V9.93425H46.6079V7.62976L46.5767 7.53633H46.4521V7.03806H46.2964V6.88235H45.8293L45.7982 6.72664H45.4245L45.0196 6.6955L44.9885 6.63322V6.57093L44.5214 6.53979V6.38408H42.1234V6.25951H41.9677L40.7843 6.22837H39.6944V6.10381L39.3829 6.04152V5.91695H38.8847V5.79239H38.5733L38.1684 5.7301H38.075V5.63668L37.9504 5.60554H37.1096V5.44983H36.9227V5.26297H36.6113V5.13841H36.4867L36.2376 5.10727H36.1442V4.95156H35.8328V4.48443H35.6771V3.67474H35.4902V3.20761L35.6771 3.17647V3.02076H35.8328V2.70934H35.9573V2.55363H36.2999V2.36678H36.4867V2.24221H36.6113V2.0865H36.9227V1.89965H38.5421V2.0865H39.0404V2.21107L39.8501 2.24221V2.36678H41.0335L41.158 2.42906V2.55363H42.902V2.6782H43.0577L43.5871 2.70934H44.0542V2.86505H44.9885V2.98962L45.113 3.02076H47.7601V3.20761H49.0058V3.33218L49.3172 3.36332V3.51903H49.5041V3.67474H49.8155V3.83045H50.158V3.98616H50.3137V4.29758H50.6252V4.48443H50.7809V4.57785L50.812 4.82699V4.95156H50.9366V5.26297H51.1234V5.79239H50.9366V6.22837L50.812 6.25951V6.88235L50.7809 7.03806H50.6252V9.62284H50.7809L50.812 9.80969V11.5848H50.9366V12.2699L50.9677 13.0484V13.173H51.1234V14.6055L51.248 14.6367L51.2791 15.5086V16.3495L51.3414 16.3806H51.4348L51.466 16.692H51.5906V17.8443H51.7774V19.2768H51.902V20.3979H51.7774V20.8962H51.902V22.9827H51.7774V23.1073L51.5906 23.1384V23.6367H51.466V23.7924H51.2791V24.1038H51.1234V24.2595L50.9677 24.2907L50.9366 24.3529V24.4152H50.6252V24.7578H50.4695V24.9446H50.3137V25.0692H50.158V25.2561H49.9712V25.3806L49.8466 25.4118L49.8155 25.5675H49.5041V25.692L49.1926 25.7232L49.1615 26.0346L49.0058 26.0657V26.2215H48.5387V26.346H48.4452L48.1961 26.3772H48.0715V26.5017H47.9158L47.8847 26.5952V26.6886H47.7601V26.8131H46.7947L46.7636 26.9377V27Z" fill="black"/>
<path d="M62.3958 25.4118H61.6484V25.2249H60.683V25.0381H60.3093V24.8512H59.9045V24.6644L59.7799 24.6332H59.1571V24.4464H58.7834V24.1661L58.7522 24.0727H58.5965V23.8858H58.4097L58.3785 23.699H58.036L58.0048 23.5121H57.8491L57.818 23.4187V23.2941H57.6311V23.1384L57.2574 23.1073V22.9204H57.0706V22.5779L56.8837 22.5467V22.3599H56.51V22.2664L56.4789 22.173H56.1052V21.9862H55.9183V21.5813H55.7315V21.4256H55.5446V21.2076H55.3578V20.8339H54.984V20.6471H54.7661V20.2734H54.5792V19.8997H54.3924V19.7128H54.2366V19.526H54.0498L54.0186 19.4325V19.308H53.8318V19.1522L53.6449 19.1211V18.7474H53.4581V18.5606H53.0844V18H52.8975V17.6263L52.6795 17.5952V17.2526H52.4927V16.8789H52.3058V16.474H52.119V15.6955H51.9321V10.9619H52.119V10.7751H52.3058V9.80969H52.4927V9.06228H52.6795V8.71972L52.7107 8.25259V8.12803L52.8975 8.09689V7.72318H53.0844V7.53633H53.2712V6.41522H53.4581V6.22837H53.6449V5.63668H53.8318V5.26297H54.0186L54.0498 4.88927L54.3924 4.85813V4.70242H54.5792L54.6103 4.609V4.51557L54.7661 4.48443L54.7972 4.32872L54.984 4.29758V4.11073H55.1709V3.95502L55.3578 3.92387V3.76817H55.5446V3.17647H55.7315V2.80277H55.9183V2.42906H56.1052L56.1363 2.21107V2.02422H56.3231V1.83737H56.6969V1.65052H56.8837V1.46367L57.2574 1.49481H57.6311V1.65052H57.818V1.83737H58.0048V2.02422H58.1917V2.21107L58.5654 2.24221L58.5965 2.33564V2.42906H60.3093V2.58478H60.4339L61.1813 2.61592H61.8353V2.80277H62.3958V2.98962H62.9564V3.14533L63.5169 3.17647V3.36332H64.1398L64.2955 3.39446V3.55017L64.6692 3.58131V3.73702L64.856 3.76817V3.92387L65.0429 3.95502V4.11073H65.4166V4.48443H65.6034L65.6346 4.70242V4.88927H65.7903V4.9827L65.8214 5.07612H65.9771L66.0083 5.20069V5.63668H66.164L66.1951 5.79239V6.22837H66.382V6.41522H66.5688V6.60207H66.7557V6.94464L66.9425 6.97578V7.16263H67.1294V7.53633H67.3162V7.72318L67.5031 7.75432V8.22145L67.5342 8.68858H67.6899L67.7211 10.1834L67.8768 10.2145L67.9079 10.7751H68.0636L68.0948 11.1488V11.5225L68.2505 11.5536V11.6782L68.2816 11.9585V12.083L68.4685 12.1142V12.6747H68.6242L68.6553 12.8304V13.827H68.8422V14.4187L68.811 14.5744H68.6553V16.8477L68.4685 16.8789V17.6574L68.4373 17.782H68.3751L68.2816 17.8131V18.5606L68.2505 19.308L68.0948 19.3391V19.4637L68.0636 19.7439V19.8997H67.8768V20.6471H67.7211V20.8339H67.5342L67.5031 21.2076H67.3474L67.3162 21.3322L67.3474 21.519V21.5813H67.1294V21.9862H66.9425V22.3599H66.7557V22.5467H66.5688V22.7336H66.382V23.1073L65.8214 23.1384L65.7903 23.2941L65.6346 23.3253L65.6034 23.4187V23.5121H65.4166V23.699H65.2297V23.8858H65.0429V24.0727H64.856V24.2595H64.4823V24.4464H64.1086V24.6332H63.7038V24.8512H63.5169V25.0381H62.9564V25.1938L62.3958 25.2249V25.4118ZM61.6484 20.6471V20.8339H62.7695V20.6471H63.1432V20.3045L63.5169 20.2422V20.1799L63.5481 20.0865H63.9218V19.8997H64.1086V19.7128H64.4823V19.3391L64.638 19.308L64.6692 19.2457V19.1522H64.7626L64.856 19.1211V18.5606H65.0429L65.074 17.8131L65.2297 17.782V17.5952H65.4166V15.3218H65.2297V14.0138H65.0429V12.301L64.856 12.2699V11.3045L64.8249 11.1488H64.7003L64.6692 10.9931V9.99654H64.4823V9.43598H64.2955V9.34256L64.2643 9.24913H64.1086V8.68858H63.9218V8.50173H63.7349L63.7038 8.09689H63.5169V7.91003H63.3301V7.72318H62.9564V7.56747L62.5827 7.53633L62.5515 7.34948H62.209V7.25605L62.1778 7.16263H62.0221L61.991 7.0692V6.97578L61.6484 6.94464V6.78893H61.2436V6.97578H59.3439L59.3128 7.16263H58.9702V7.31834L58.5965 7.34948V7.4429L58.5654 7.53633L58.4097 7.56747L58.3785 7.62976V7.72318H57.818V7.91003H57.4443V8.09689H57.2885L57.2263 8.47059H57.0706V8.87543H56.8837V9.24913H56.6969V9.99654H56.51V10.1211L56.4789 10.308V10.3702H56.3231V10.5571L56.292 10.7751H56.1052V11.5536H55.9183V12.4567L55.7315 12.4879V13.0484H55.9183V13.9827L56.1052 14.0138V14.5433L56.2297 14.5744H56.3231V15.3218H56.51V15.5086H56.6969V15.9135H56.8837V16.474H57.0706V16.8477L57.2574 16.8789V17.0657H57.4443V17.4083L57.6311 17.4394V17.5952H57.818V17.782H58.1917V18L58.2228 18.1868H58.3785L58.4097 18.5606H58.7834V18.7474H59.1571V18.9343H59.5308V19.0588L59.5619 19.1522H59.7176V19.3391H59.9045V19.7128H60.3093V19.8997H60.683V20.0865H61.0567V20.2734H61.2436V20.6471H61.6484Z" fill="black"/>
<path d="M81.2568 25.5052V25.692L78.3295 25.6609V25.5052H77.9247V25.3183L77.3952 25.2872V25.1315L76.9904 25.1003V24.9446H76.6478V24.7578H76.461V24.5709H76.0873V24.3841H75.7136V24.2284L75.5579 24.1972L75.5267 24.0104H75.371L75.3399 23.8235H75.153V23.6367H74.9662V23.481L74.6236 23.4498L74.5925 23.263V23.0761H74.4368V22.9204L74.2499 22.8893L74.2188 22.827V22.7336H74.0631V22.3599H73.8762V22.173H73.6894V21.9862L73.5025 21.955V21.7993H73.3157V21.4256H73.1288V21.2388H72.942V20.8651H72.7551V20.6782H72.5683V20.3356H72.3814V19.9619H72.1946V19.5882H72.0388L72.0077 19.2145H71.8208V19.0277H71.634V18.654H71.4471V18.2803L71.2914 18.2491L71.2603 17.9066H71.0734V17.7197H70.8866V17.3772H70.7309L70.6997 16.9723L70.544 17.0035V16.4429H70.3572V15.3218H70.1703V14.5744H69.9835V14.1384L69.9523 13.609V13.4844H69.7966V12.737H69.6098V11.4291H69.4229V10.7128H69.2361V10.1522H69.0492V9.24913L68.8935 9.21799L68.8624 8.12803H68.6755V7.38062H68.4887V6.63322H68.333V5.88581L68.1461 5.85467L68.115 5.16955H67.9593V5.04498L67.9281 4.29758V3.67474H67.7724V3.51903L67.7413 3.26989V3.14533L67.5856 3.11419V2.02422L67.7413 1.99308L67.7724 1.83737V1.65052H67.9281V1.49481H68.115V1.37024L68.1461 1.27681L68.3018 1.24567L68.333 0.903114L68.4887 0.871972V0.809687L68.5198 0.716263L68.8624 0.68512V0.52941H69.0492V0.373701L69.2361 0.34256V0.186851H69.6098V0H70.8866V0.0622829L70.9177 0.155709L71.2603 0.186851L71.2914 0.34256L71.416 0.373701V0.52941H71.5406V0.68512L71.6963 0.716263V0.903114H71.8208V1.05882L71.9766 1.08996V1.43252L72.1011 1.46367V2.58478H72.2568V3.14533H72.4437V3.67474H72.2568V4.20415L72.4437 4.23529V4.57785L72.6305 4.609V5.3564H72.7862V5.97924L72.8174 6.57093V6.82007H72.9731L73.0042 7.19377H73.1599L73.1911 7.53633L73.3468 7.56747L73.3779 7.69204V8.68858H73.5337V9L73.5648 9.46713V9.62284H73.7205L73.7516 9.77855V10.8997H73.9074V11.2422L73.9385 11.6159H74.0942V12.1765L74.1253 12.737H74.2811L74.3122 14.2007L74.4679 14.2318V14.7612H74.6859V15.6955H74.8727V16.0692H75.0596V16.2561H75.2465V16.6298H75.4644V17.3772H75.6513L75.6824 17.7197L75.8382 17.7509V17.8443L75.8693 17.9066L76.0561 17.9377V18.1246H76.243V18.2803H76.4298V18.654H76.6167L76.6478 19.1834L76.8035 19.2145V19.4014H76.9904V19.5882H77.1773L77.2084 19.7751V19.9619H77.4264V20.1488H77.5821V20.3356H77.7689V20.4913H77.9869V20.6782L78.3606 20.7093V20.8028L78.3918 20.8651L78.7655 20.8962V21.0519H78.9523V21.2388H79.3572V21.4256H80.8831V21.3322L80.9454 21.2388H81.4437V21.1453L81.4748 21.0519H81.6305V20.8962L82.0042 20.8651V20.7093L82.1911 20.6782V20.3356L82.3779 20.3045V19.9619L82.5648 19.9308V19.4014H82.7516V17.0035L82.6582 16.9723H82.5648V15.6332L82.5337 15.5086H82.3779V13.1107L82.5648 13.0796V11.8339L82.7516 11.8028V11.0865H82.9074L82.9385 10.9619V9.62284H83.0942L83.1253 9.43598V8.87543H83.2811V8.12803H83.1253V7.38062H83.2811V6.63322H83.1253V5.3564L83.3122 5.32526V5.16955H83.4679L83.4991 4.42214L83.6548 4.391V4.29758L83.6859 4.14187L83.7482 4.07958L83.8416 4.04844L83.8728 3.67474L84.0285 3.6436V3.14533L84.2153 3.11419V2.95848H84.4022V2.77163L84.589 2.74048V2.58478L84.9627 2.55363V2.39792H85.4921L85.5233 2.3045V2.21107H87.1738V2.39792H87.3606V2.58478H87.5475L87.5786 2.92733L87.7343 2.95848V3.33218H87.8901L87.9523 3.67474H88.0769L88.108 3.83045V5.16955L88.0769 5.3564H87.9212V5.88581H87.7343V6.72664L87.6409 6.82007H87.5786L87.5475 7.38062H87.3606V9.24913L87.3295 9.40484H87.2049L87.1738 10.8685L86.9869 10.8997V12.0519L86.9558 12.1765H86.8312L86.8001 17.1592L86.6132 17.1903V17.5329H86.8001V17.7197H86.6444V18.1868L86.6132 18.654H86.8001V19.2145H86.6132V19.9308L86.4575 19.9619L86.4264 20.3045L86.2395 20.3356L86.2707 20.8651L86.4264 20.8962V21.4256H86.2707L86.2395 21.7993H86.0838L86.0527 22.173H85.897V22.2664L85.8658 22.3599H85.679V22.5467H85.4921V22.7336H85.3053V22.9204H85.1496V23.0761L84.9627 23.1073V23.263L84.7759 23.2941V23.4498L84.5579 23.481V23.6367L84.4022 23.6678V23.8235H84.2153V24.0104H84.0285V24.1972L83.6548 24.2284V24.3841H83.2811V24.5709H83.1253L83.0942 24.6644V24.7578H82.9385V24.9446H82.5648V25.1003L82.1911 25.1315V25.2872L81.6305 25.3183V25.5052H81.2568Z" fill="black"/>
<path d="M93.0703 26.1592V26.346L92.4163 26.3149V26.1903L92.0738 26.1592V26.0035H91.9181L91.8869 25.8477H91.5444L91.5755 25.7543V25.692L91.3886 25.6609V25.5052H91.2018V25.3495H90.8904L90.8592 25.0069H90.7035V24.8512L90.6724 24.6644H90.5478L90.5167 24.5709L90.4544 22.7336L90.3921 21.0208H90.2675L90.2053 19.8997H90.0495L89.9873 18.5606L89.925 17.2526H89.7693L89.707 15.7578H89.5513V15.6021H89.707V15.4464L89.5824 15.4152L89.5201 14.7612H89.6758V14.4498L89.8627 14.4187L89.8315 14.2941L89.9873 14.263L89.925 12.4567H89.8004L89.7693 12.3322L89.7381 11.8339L89.707 11.4602H89.5513L89.5201 10.308H89.3644V9.9654H89.2087L89.1776 9.80969H89.0219V9.49827H88.8662L88.8039 8.81315H88.6482V8.50173L88.8039 8.47059V8.15917L88.6482 8.12803L88.617 7.50519H88.4613V7.34948L88.399 6.82007L88.4302 6.29066L88.399 6.16609H88.5547L88.5236 5.3564H88.7104V4.85813H88.8662V4.51557H89.0219L88.9907 4.35986H89.1464V4.26643L89.1776 4.20415L89.3021 4.17301V4.0173H89.4578V3.98616L89.489 3.86159L89.5824 3.83045H89.6758L89.6447 3.51903H89.7693V3.36332L89.9561 3.33218V2.86505H90.1118L90.0807 2.70934H90.2364V2.61592L90.2675 2.55363H90.3921V2.39792L90.7658 2.33564V2.21107L91.0772 2.17993V2.02422H91.5755V1.86851H92.0738L92.0426 1.7128H92.5409V1.55709H93.3506V1.37024H96.4959L96.527 1.18339L96.5893 1.21453H96.6516L96.6828 1.30796V1.37024H98.6758V1.55709H99.6412V1.7128H100.295L100.326 1.86851H100.98V2.02422L101.323 2.05536V2.17993L101.479 2.21107V2.27335L101.51 2.33564L101.634 2.36678L101.665 2.46021V2.55363H101.821V2.6782L102.008 2.70934L102.039 2.86505H102.164L102.195 3.02076V3.17647H102.319L102.382 3.51903L102.537 3.55017L102.569 3.70588H102.693V3.86159L102.724 4.0173H102.88V4.20415H103.036L103.098 4.85813H103.223L103.316 7.97232H103.16L103.191 8.81315H103.036L103.067 9.9654H102.942V10.6194H102.787L102.818 10.7439L102.787 10.9931L102.755 11.1176H102.631L102.6 11.4602H102.475V11.9585H102.319V12.1142H102.164V12.4567H102.008L102.039 12.7682H101.883L101.852 13.0796H101.697V13.2664H101.354L101.385 13.4533H101.229V13.609H101.074V13.9204H100.918V14.1073H100.575V14.263L100.42 14.2941L100.451 14.6055H100.264V14.7612H100.108V15.0727H100.264L100.295 15.4152L100.482 15.4464V15.6021H100.638V15.9135H100.98V16.0692L101.292 16.1003L101.323 16.1626V16.2561H101.479V16.4118L101.51 16.5675L101.665 16.5986V16.7543H102.008L102.039 17.0657H102.195V17.2215L102.319 17.2526L102.351 17.3149V17.4083H102.537V17.5952H102.662V17.6574L102.693 17.7509H102.849L102.88 17.9066H103.036V18.0623L103.067 18.218L103.191 18.2491L103.223 18.3114V18.4048H103.347L103.378 18.5606L103.534 18.5917L103.596 18.9031H103.721V19.2145H103.877L103.908 19.308V19.3702L104.063 19.4014V19.4637L104.095 19.5571H104.219L104.281 19.7439V19.8997H104.437V20.0554H104.593L104.624 20.5536H104.78V20.7093H104.935V20.8651L105.091 20.8962L105.122 21.2076L105.278 21.2388V21.3633L105.589 21.3945L105.652 21.519L105.807 21.5502V21.8616L105.963 21.8927L105.994 22.3599H105.87L105.838 22.8581L105.87 23.3564H105.807L105.714 23.3875V23.6367L105.683 23.8547H105.558V23.9481L105.527 24.0104L105.371 24.0415L105.402 24.1661L105.247 24.1972V24.2595L105.216 24.3529H105.091V24.4464L105.06 24.5398H104.904V24.6644H104.593V24.8512H104.406V25.0069H104.095L104.126 25.1626L103.783 25.1938V25.3495H103.627V25.1626H103.316L103.285 25.0069H103.098V24.8824L102.787 24.8512V24.7889L102.755 24.6955L102.662 24.6644H102.6V24.5398H102.288L102.257 24.3529V24.1972L102.101 24.1661L102.07 24.0104H101.915V23.8547H101.759L101.728 23.7612V23.699L101.572 23.6678L101.51 23.2007L101.385 23.1695V22.8581H101.229V22.5467H101.043L101.011 22.2353L100.887 22.2042L100.856 21.8927L100.7 21.8616V21.5502L100.513 21.519L100.482 21.2388L100.326 21.2076V21.0208H100.202L100.171 20.9273V20.5536H99.9838L99.9527 20.2111H99.7969V20.0554H99.6412V19.7128H99.4855L99.4232 19.4014H99.2987V19.2145H98.925V19.0588H98.8004L98.7693 18.9654V18.9031H98.6136L98.5824 18.7163H98.4267V18.5917L98.1153 18.5606L98.0842 18.4671V18.4048H97.8973V18.218H97.5859V18.0623H97.4302V17.9066H96.9319L96.9008 17.8131L96.8696 17.7509H96.5582V17.564H96.2156V17.4083H95.7485V17.2526L95.4059 17.2215V17.0657H94.9077L94.8765 16.91H94.3783L94.4094 17.0657H94.098V17.2526H93.9111L93.9423 18.4048H94.1291V18.7163H93.9423L93.9734 19.4014H94.1603L94.1914 20.0554H94.3471V20.3979H94.5028L94.534 20.5536H94.3783L94.4406 22.3599L94.5963 22.391L94.6274 23.3875H94.4717L94.5028 24.1661H94.6585V24.3529H94.5028V24.6644H94.3471V24.7578L94.316 24.8512H94.1603L94.1914 25.1626L94.0357 25.1938L94.0046 25.5052H93.88L93.8489 25.5986V25.692H93.6931V25.8477H93.5374L93.5686 26.0035H93.226V26.1592H93.0703ZM94.5963 12.7682L95.7485 12.7993L96.6828 12.7682V12.6436L96.9942 12.6125V12.4567H97.2745V12.2699H97.5859V12.1142H97.8662V11.9585H98.1776L98.2087 11.8651V11.8028H98.3333L98.3021 11.6159H98.4579V11.4602H98.5824V11.3045H98.8938V10.9931L99.0495 10.9619V10.8685L99.0807 10.8062H99.1741V10.6505L99.3298 10.6194V10.4637H99.4544V10.1211H99.6101L99.579 9.65398L99.7347 9.62284L99.7658 9.09342L99.7347 8.50173L99.7969 8.47059H99.8592V7.81661H99.7347L99.7035 7.69204L99.6724 6.88235L99.6412 6.16609H99.4855L99.4544 5.51211H99.1741L99.143 5.3564H98.8627V5.16955H98.2399V5.01384H97.8039L97.7727 5.10727V5.16955H96.745V5.10727L96.7139 5.01384H95.0945L95.0634 5.10727V5.16955H94.7831V5.32526L94.316 5.3564L94.3471 5.51211H93.7554L93.7243 5.57439V5.66782H93.5686V5.82353L93.444 5.85467V6.01038H93.2883V6.16609H93.1326L93.1637 6.50865H93.008L93.0703 8.65744H93.226L93.2883 9.9654H93.4751L93.5063 11.1176H93.3194L93.3506 11.9585H93.5374V12.1142H93.662V12.2699L93.8177 12.301V12.4567H93.9423V12.519L94.0046 12.6125L94.4717 12.6436V12.7682H94.5963Z" fill="black"/>
<path d="M119.821 25.3183H118.762V25.1315H118.357V24.9446H118.171V24.7889H117.953V24.6021H117.704V24.4464L117.548 24.4152L117.517 24.2907L117.33 24.2595V23.8858H117.174L117.143 23.7301V23.5744H116.956L116.925 23.2007H116.707V23.045H116.489V22.6713H116.271V22.3287H116.115V21.8304H115.928V21.6436L115.897 21.4567H115.71V20.9273H115.461V20.7716H115.274L115.243 20.2422L115.088 20.2111V20.0554H114.87V19.526H114.683V19.3702H114.434V18.9965H114.247V18.9031L114.216 18.5606V18.3114H114.06V17.9689L113.842 17.9377V17.5952H113.624V17.2526H113.437V16.91L113.281 16.8789L113.25 16.5363H113.063V16.3495H112.908V16.0069H112.752L112.721 15.5086L112.534 15.4775V15.3218H112.347V14.9792H112.16V14.7924H111.973V14.6367L111.818 14.6055V14.4498H111.631V13.9204H111.475V13.7336H111.382V13.4221L111.226 13.391V13.2976L111.195 13.2353H111.07V12.8616H110.946L110.915 12.7682V12.6747H110.79V12.519H110.634V12.3322H110.541L110.51 11.9896H110.385V11.8339H110.261L110.229 11.7405V11.6471L110.105 11.6159V11.4913L109.949 11.4602V11.2734H109.825L109.793 10.9308H109.7V10.7751H109.544V10.5882H109.358V10.4014H108.641V11.0554H108.797V11.2111H108.641V11.3668H108.797L108.828 11.4602V12.5813H108.953L108.984 12.6747V14.699H109.14L109.171 15.1038L109.326 15.1349V15.7266L109.358 16.3183H109.513V17.6574H109.7V19.526H109.856V20.0865H109.7V20.2422L109.669 20.4602L109.575 20.4913H109.513V21.1453H109.669L109.7 21.2699V24.1972L109.513 24.2284V24.3841H109.358V24.7266H108.984V24.9135H108.454V25.0692L108.112 25.1003V25.2561H107.084V25.0692H106.773V24.9135H106.524L106.492 24.8201V24.7266H106.337L106.306 24.3841H106.181L106.15 24.2595V23.1695L105.963 23.1384V21.7682L105.994 21.6436H106.15V20.3045H105.994L105.963 20.1799V18.654H105.807V16.6609H105.62V15.2907H105.434V15.0104H105.278V14.481H105.434L105.465 14.0761L105.62 14.045V13.9204H105.434V12.5813H105.278V11.3979L105.122 11.3668V11.3045L105.091 10.9931V10.8374H104.935V10.3702L104.904 9.90311L104.749 9.87197V9.18685H104.593L104.562 9V8.84429H104.406V8.50173L104.375 8.15917H104.219V7.62976L104.032 7.59861V7.4429H103.877V5.32526H104.032V4.82699L104.219 4.79585V4.64014H104.406V3.92387H104.562V3.76817L104.749 3.73702V3.4256H105.091V3.23875H105.434V3.08304L105.62 3.0519V2.86505H105.963V2.74048L107.707 2.70934V2.86505H108.05L108.081 2.95848V3.0519L108.268 3.08304V3.23875H108.423V3.33218L108.454 3.4256H108.766V3.58131H109.171V3.92387H109.326V4.07958L109.731 4.11073V4.35986H109.887V4.54671H110.074V4.79585H110.385L110.416 4.92041V4.9827L110.603 5.04498V5.23183H110.79V5.41868H110.977V5.66782H111.164V5.91695H111.351V6.13495H111.537V6.60207H111.693V6.78893H112.098V7.03806H112.285V7.22491L112.409 7.25605L112.441 7.38062V7.47405H112.627V7.72318H112.783V7.94118H112.97L113.001 8.37716H113.157V8.59515L113.344 8.6263L113.375 8.81315H113.531V9.49827H113.717L113.749 9.62284V9.7474H113.904V10.1834H114.06V10.3702H114.247V10.6194H114.434V11.0554H114.62V11.1799L114.652 11.3045H114.807V11.7405H114.994V12.1765H115.15V12.4256H115.368V12.6747H115.524V12.8616H115.71V13.1107H115.897V13.5467H116.115V13.7958H116.271V13.9827L116.458 14.0138V14.1695L116.614 14.2007V14.5121H116.8V14.699H116.956L116.987 15.0415H117.486L117.517 14.8858L117.672 14.8547L117.704 14.5121H117.859V10.5882H117.704L117.672 10.4325V5.32526H117.517V4.67128H117.672V3.58131H117.859V3.4256H118.015V3.0519H118.14V2.70934H118.295V2.61592L118.326 2.52249H118.482L118.513 2.17993H118.638V2.02422H118.949V1.83737H119.416V1.65052H119.728V1.49481L120.07 1.46367H120.351L120.382 1.55709V1.65052H120.537V1.83737H120.693V1.99308L120.88 2.02422V2.17993H121.036V2.33564L121.223 2.36678V2.52249L121.378 2.55363V2.86505H121.565L121.596 3.95502H121.659L121.721 3.98616V4.04844L121.752 4.11073H121.565V4.51557L121.534 4.64014H121.409V4.76471L121.378 5.82353V6.72664H121.223V6.91349H121.378V7.4429H121.223V8.84429H121.378V9H121.223V9.18685H121.378L121.409 10.9308L121.534 10.9619L121.565 11.1176V11.6471H121.378V11.9896H121.223V12.519H121.378V13.2353H121.223V13.7647H121.378V15.1349H121.534L121.565 15.2907V16.0069H121.409V16.8789L121.565 16.91V17.5952L121.534 17.7509H121.409V17.8754L121.378 18.4048V18.8097H121.534L121.565 18.9965V19.6817L121.378 19.7128V20.0554H121.565V20.3979H121.721V20.5848H121.565V20.7716H121.721V21.083L121.596 21.1142L121.565 21.1765V21.2699H121.721V21.9862H121.565V22.6713H121.721V23.7301H121.565V24.0727H121.378V24.2595L121.223 24.2907V24.4464H121.036V24.6021H120.88V24.6955L120.849 24.7889H120.693V24.9446L120.351 24.9758V25.0381L120.319 25.1315H119.977V25.2872L119.821 25.3183Z" fill="black"/>
<path d="M124.294 26.128H123.796L123.64 26.0969V25.9723H123.516L123.235 25.9412H123.111L123.08 25.7855H122.924V25.6298H122.768L122.737 25.2872H122.581L122.55 25.1626L122.519 24.8824L122.488 24.7578H122.332L122.208 23.0761H122.363V22.7336H122.519L122.488 22.4221H122.644L122.581 21.737L122.737 21.7059V21.3633H122.893L122.799 20.5536L122.955 20.5225L122.986 20.4602V20.3668H122.799L122.768 20.2111L122.924 20.1799V19.6817H123.08L122.986 18.7474L122.924 17.8131H123.111L123.08 17.7197V17.6574H123.235L123.173 16.8166L123.08 15.9446H123.266L123.173 14.7924L123.298 14.7612L123.266 13.9204H123.422L123.36 13.4221H123.516L123.453 12.737H123.64L123.609 12.2388H123.796L123.734 11.5536H123.889L123.858 11.0554L124.014 11.0242L123.983 10.8685L124.014 10.7128L124.17 10.6817L124.138 10.3702L124.107 10.0277H124.263V9.68512H124.419L124.388 9.49827H124.543V9H124.699V8.84429H124.855L124.792 8.34602L124.948 8.31488V7.81661H125.073L125.104 7.47405L125.228 7.50519L125.197 7.31834H125.384L125.353 6.82007L125.509 6.78893L125.478 6.63322L125.509 6.47751H125.633V6.13495H125.789L125.758 5.76125L125.696 5.26297L125.727 5.10727H125.882L125.851 4.79585H126.007V4.609L126.163 4.57785L126.132 4.48443L126.163 4.32872V4.26643H126.318L126.256 3.58131H126.443L126.412 3.4256H126.536V2.89619H126.692L126.661 2.74048H126.848V2.58478H127.004L126.972 2.24221H127.315L127.284 2.05536H127.471V1.86851H127.595L127.844 1.89965H127.969V2.05536H128.467L128.498 2.24221H128.841V2.39792H128.997L129.028 2.46021V2.55363L129.059 2.58478H129.37V2.64706L129.401 2.74048H129.526L129.588 2.89619L129.9 2.92733L129.962 3.4256H130.118L130.149 3.73702L130.336 3.76817L130.367 4.11073H130.523L130.554 4.26643H130.709V4.42214L130.772 4.57785L130.927 4.609V4.76471L131.083 4.79585L131.114 4.92041L131.27 4.95156L131.332 5.44983H131.488L131.519 5.63668H131.706L131.737 6.13495H131.893V6.29066L131.924 6.44637L132.111 6.47751L132.142 6.97578H132.298L132.329 7.31834H132.516L132.547 7.47405H132.702L132.734 7.97232L132.889 8.00346V8.09689L132.952 8.34602L132.983 8.50173H133.138L133.17 9.15571L133.325 9.18685L133.419 9.84083L133.574 9.87197L133.668 10.7128H133.824V10.8685L133.886 11.0554H134.01V11.1488L134.073 11.4602L134.104 11.7093H134.26L134.291 12.2388H134.446L134.478 12.5502H134.664L134.696 13.0484L134.851 13.0796L134.882 13.2976L134.914 13.609L134.945 13.7336H135.069L135.1 13.8581L135.132 14.1384L135.163 14.263H135.318L135.381 14.9481H135.536L135.599 15.2595L135.63 15.6021L135.754 15.6332L135.786 15.7578L135.817 16.0069V16.1315H135.972V16.2872L136.035 16.474H136.19L136.284 17.6574H136.439L136.471 17.8131H136.626L136.657 17.9689L136.689 18.1557V18.3426L136.72 18.4983H136.875L136.938 19.1834H137.125L137.156 19.526H137.311V19.6817H137.467L137.498 19.8374L137.654 19.8685L137.685 20.0242H137.872L137.965 21.2076H138.121L138.183 21.7059H138.028V22.0484H137.872L137.903 22.391L137.716 22.4221V22.5779H137.561L137.592 22.7336H137.436V22.8893H137.249L137.28 23.0761H136.969L136.938 23.1695V23.263H136.782V23.4187H136.626V23.7612H136.315V23.917H135.63V23.7612H135.256L135.132 23.7301V23.5744H134.976L134.914 23.4187V23.263H134.758L134.727 22.8893H134.54L134.509 22.5779H134.353L134.322 22.2353H134.166L134.135 21.8927H133.948V21.7059H133.606L133.574 21.3633H133.761L133.668 20.3668H133.481L133.419 19.8374H133.263V19.5882L133.232 19.3391H133.076V19.2457L133.014 19.09V19.0277L132.858 18.9965V18.8408H131.332V18.9965H131.208L130.678 19.0277H130.305L130.336 19.1834H129.837V19.3391H129.308V19.4948H128.343L127.284 19.526H127.159V19.6505L127.004 19.6817H126.132V19.7751L126.1 19.8374H125.976L126.007 20.3668H125.851L125.882 20.8651H125.727L125.758 20.9896L125.82 22.2664L125.914 23.4187H125.789V23.5433L125.82 24.0415L125.851 24.4152H125.696L125.727 24.7578H125.54L125.571 25.1003H125.415V25.2872H125.26V25.4429H125.104L125.135 25.7855H124.637L124.606 25.8789L124.637 25.9723H124.325V26.0346L124.294 26.128ZM129.651 15.4775L129.682 15.6332H130.024L129.993 15.5398V15.4464H131.363V15.2595H131.519L131.488 15.1038H131.675L131.613 14.7612H131.457V14.6055L131.426 14.3564L131.395 14.263H131.27L131.239 13.9516L131.208 13.5467L131.145 13.4221H130.99V13.2664L131.177 13.2353L131.145 13.0796H130.959L130.927 12.5502H130.772L130.741 12.2388H130.585L130.523 11.7093H130.367L130.336 11.6159L130.305 11.5536H130.149L130.118 11.0242H129.962L129.9 10.526H129.744L129.713 10.1522L129.651 9.71626L129.588 9.68512H129.526L129.495 9.5917L129.464 9.52941L129.308 9.49827L129.246 9.15571H129.09V9H128.405L128.436 9.49827H128.28L128.311 9.68512H128.156V10.0277H128.031L128 10.1834L128.031 10.3391H127.875V10.526H127.689L127.72 10.8685H127.564V11.0242L127.408 11.0554V11.2111H127.253L127.284 11.5536H127.128L127.159 12.0519H127.004V12.3633L126.848 12.3945V12.737H126.692L126.723 13.0796H126.568L126.599 13.5779L126.443 13.609L126.474 13.9204L126.505 14.263H126.35L126.412 14.9481H126.568V15.1038H126.754L126.786 15.2595H126.941V15.4464H129.526L129.651 15.4775Z" fill="black"/>
<path d="M145.585 25.3806H143.81V25.2249H143.125V25.0692H140.976V24.8824H140.633V24.6955H140.447V24.5087H140.26V24.3529H140.104V24.1661H139.917V23.9792H139.73V23.6367H139.543V23.2941H139.388V22.0484H139.232L139.201 20.8339L139.045 20.8028V20.6159H139.232V19.6194L139.201 18.4671V18.3114H139.045L139.014 18.1557V16.91H138.858V15.1349H139.014V14.2318H138.858V12.8616L138.671 12.8304V11.7093L138.64 11.6159H138.516V10.8997H138.329V9.65398H138.142V8.78201L137.955 8.75086V7.87889L137.8 7.84775V6.82007H137.613V6.13495L137.426 6.10381V5.9481L137.27 5.91695L137.239 5.85467V5.76125H137.083V5.41868L136.928 5.38754L136.896 5.23183H136.741V3.26989H137.083V3.11419H137.239L137.426 3.08304L137.457 2.98962V2.92733H137.613V2.58478H137.8V2.39792H137.955V2.21107H138.516V2.05536H139.014V2.21107H139.543V2.39792H140.104V2.58478H140.26V2.77163H140.447V3.11419L140.633 3.14533V3.79931H140.789V3.95502L140.82 4.20415V4.35986H140.976V4.45329L141.007 4.51557H141.132V4.67128L141.163 4.92041V5.07612H141.319V5.9481H141.505V6.44637H141.692V6.63322H141.848L141.879 7.50519L142.035 7.53633V8.06574H142.222V9.46713H142.377V9.5917L142.409 9.9654V10.1834H142.564V11.3979L142.751 11.4291V12.1142L142.72 12.301H142.595L142.564 12.4879V12.8304L142.751 12.8616V13.9204H142.907L142.938 14.0761V14.4187L142.907 14.6055H142.751V14.9481H142.907V15.0415L142.938 15.7578V16.5363H143.094V18.5294L143.125 18.6851H143.28V19.9308H143.436V20.2734H143.623V20.6159H143.81V20.8028H144.184V20.9896H144.557L145.087 20.9585H145.211V20.8962L145.242 20.8339L147.516 20.8028V20.6159H148.232V20.4602L148.575 20.4291L148.606 20.3668V20.2734H149.104V20.1176H149.26L150.661 20.0865H151.938V20.2734H152.094L152.125 20.3668V20.4602H152.654V20.6159H153.184V20.8028L153.526 20.8339V21.0208L153.557 21.3633V21.519H153.713V22.9204L153.557 22.9516V23.045L153.526 23.2941V23.4498L153.184 23.481V23.6367H152.841L152.81 23.8235H152.654V23.9792L152.498 24.0104L152.467 24.0727V24.1661H151.782V24.3529H150.007V24.5087H149.665V24.6955H149.478V24.7889L149.447 24.8824H148.076L148.045 25.0381L147.889 25.0692V24.8824H147.703V25.0692H146.644L146.613 25.1315V25.2249H145.585V25.3806Z" fill="black"/>
</svg>
